<!DOCTYPE svg PUBLIC "-//W3C//DTD SVG 1.1//EN" "http://www.w3.org/Graphics/SVG/1.1/DTD/svg11.dtd">
<!-- Uploaded to: SVG Repo, www.svgrepo.com, Transformed by: SVG Repo Mixer Tools -->
<svg fill="#09244B" height="800px" width="800px" version="1.1" id="Layer_1" xmlns="http://www.w3.org/2000/svg" xmlns:xlink="http://www.w3.org/1999/xlink" viewBox="0 0 512 512" xml:space="preserve">
<g id="SVGRepo_bgCarrier" stroke-width="0"/>
<g id="SVGRepo_tracerCarrier" stroke-linecap="round" stroke-linejoin="round"/>
<g id="SVGRepo_iconCarrier"> <g> <g> <path d="M509.278,55.277L456.724,2.722c-3.629-3.628-9.511-3.63-13.141,0L98.346,347.959c-3.629,3.629-3.629,9.513,0,13.14 l15.575,15.576c-8.016,3.001-17.41,1.285-23.846-5.15c-0.253-0.253-0.498-0.512-0.738-0.776c-1.708-1.884-4.115-2.985-6.657-3.047 c-2.556-0.083-4.999,0.921-6.797,2.718l-52.791,52.791c-3.406,3.406-3.615,8.798-0.627,12.448L2.722,455.402 C0.979,457.144,0,459.508,0,461.972c0,2.464,0.979,4.828,2.722,6.57l40.735,40.735c1.742,1.743,4.106,2.722,6.57,2.722 s4.828-0.979,6.57-2.722l19.744-19.744c1.651,1.349,3.725,2.095,5.876,2.095c2.464,0,4.828-0.979,6.57-2.722l420.491-420.49 C512.907,64.788,512.907,58.904,509.278,55.277z M50.027,489.567l-27.594-27.594l13.14-13.139l27.594,27.594L50.027,489.567z M82.217,469.196l-39.414-39.414l40.145-40.145c15.979,10.828,37.959,9.174,52.105-4.972c1.743-1.742,2.722-4.106,2.722-6.57 c0-2.464-0.979-4.828-2.722-6.57l-16.996-16.996L450.152,22.433l39.414,39.414L82.217,469.196z"/> </g> </g> <g> <g> <circle cx="217.88" cy="281.698" r="9.259"/> </g> </g> <g> <g> <circle cx="437.383" cy="62.183" r="9.259"/> </g> </g> <g> <g> <circle cx="406.025" cy="93.54" r="9.259"/> </g> </g> <g> <g> <circle cx="374.667" cy="124.898" r="9.259"/> </g> </g> <g> <g> <circle cx="343.31" cy="156.255" r="9.259"/> </g> </g> <g> <g> <circle cx="311.952" cy="187.625" r="9.259"/> </g> </g> <g> <g> <circle cx="280.595" cy="218.983" r="9.259"/> </g> </g> <g> <g> <circle cx="249.237" cy="250.34" r="9.259"/> </g> </g> </g>
</svg>