<!DOCTYPE svg PUBLIC "-//W3C//DTD SVG 1.1//EN" "http://www.w3.org/Graphics/SVG/1.1/DTD/svg11.dtd">
<!-- Uploaded to: SVG Repo, www.svgrepo.com, Transformed by: SVG Repo Mixer Tools -->
<svg fill="#ffe2d6" height="800px" width="800px" version="1.1" id="Capa_1" xmlns="http://www.w3.org/2000/svg" xmlns:xlink="http://www.w3.org/1999/xlink" viewBox="0 0 469.932 469.932" xml:space="preserve">
<g id="SVGRepo_bgCarrier" stroke-width="0"/>
<g id="SVGRepo_tracerCarrier" stroke-linecap="round" stroke-linejoin="round"/>
<g id="SVGRepo_iconCarrier"> <g> <path d="M109.936,294.787c-2.929-2.929-7.678-2.929-10.606,0c-2.929,2.929-2.929,7.678,0,10.606l65.21,65.21 c1.464,1.464,3.384,2.197,5.303,2.197s3.839-0.732,5.303-2.197c2.929-2.929,2.929-7.678,0-10.606L109.936,294.787z"/> <path d="M467.735,39.277l-37.08-37.08c-2.929-2.929-7.677-2.929-10.604-0.002l-8.104,8.104l-5.792-5.792 c-2.929-2.929-7.678-2.929-10.606,0c-2.929,2.929-2.929,7.678,0,10.606l5.792,5.792l-5.629,5.628l-5.797-5.797 c-2.928-2.929-7.677-2.929-10.606,0c-2.929,2.929-2.929,7.677,0,10.606l5.797,5.797l-5.624,5.624l-5.797-5.797 c-2.929-2.929-7.678-2.929-10.606,0c-2.929,2.929-2.929,7.677,0,10.606l5.797,5.797L256.624,165.622 c-38.947-18.828-86.417-11.053-117.28,19.82c-4.67,4.662-8.899,9.791-12.606,15.286c-32.989,1.932-63.872,15.772-87.339,39.229 c-52.531,52.542-52.531,138.034,0.001,190.577c26.271,26.266,60.778,39.398,95.287,39.398c34.509,0,69.019-13.134,95.29-39.4 c23.456-23.466,37.295-54.348,39.228-87.337c5.496-3.708,10.624-7.936,15.28-12.601c30.879-30.869,38.654-78.339,19.826-117.286 l104.145-104.145l8.107-8.106l5.797,5.796c1.464,1.465,3.384,2.197,5.303,2.197s3.839-0.732,5.303-2.197 c2.929-2.929,2.929-7.678,0-10.606l-5.797-5.796l5.624-5.624l5.797,5.796c1.464,1.465,3.384,2.197,5.303,2.197 s3.839-0.732,5.303-2.197c2.929-2.929,2.929-7.678,0-10.606l-5.797-5.796l5.629-5.628l5.792,5.792 c1.464,1.464,3.384,2.197,5.303,2.197s3.839-0.732,5.303-2.197c2.929-2.929,2.929-7.678,0-10.606l-5.792-5.792l8.104-8.104 C470.665,46.952,470.664,42.205,467.735,39.277z M427.489,68.917l-24.336,24.336L376.679,66.78l8.097-8.097 c0.019-0.02,16.218-16.219,16.218-16.219c0.042-0.042,24.357-24.359,24.357-24.359l26.478,26.478L427.489,68.917z M254.386,338.779 c-0.901,30.64-13.337,59.459-35.016,81.147c-46.695,46.684-122.671,46.684-169.364,0.001 C3.322,373.234,3.322,297.257,50.004,250.564c21.689-21.68,50.509-34.116,81.148-35.018c2.517-0.074,4.829-1.406,6.155-3.547 c3.589-5.793,7.84-11.157,12.639-15.947c25.1-25.108,63.052-32.331,95.332-19.086l-47.613,47.604 c-1.865-0.195-3.74-0.305-5.611-0.305c-14.309,0-27.767,5.572-37.897,15.693c-20.89,20.902-20.89,54.912,0.003,75.817 c10.127,10.121,23.589,15.695,37.907,15.695c14.318,0,27.78-5.574,37.911-15.699c11.468-11.479,17.054-27.493,15.379-43.5 l47.609-47.617c13.245,32.28,6.02,70.233-19.092,95.338c-4.785,4.793-10.148,9.043-15.941,12.633 C255.792,333.951,254.46,336.263,254.386,338.779z M199,239.891c7.741,1.397,14.785,5.088,20.369,10.672 c5.585,5.585,9.275,12.629,10.674,20.376c2.264,12.476-1.727,25.272-10.672,34.226c-7.294,7.29-16.991,11.305-27.304,11.305 c-10.313,0-20.009-4.015-27.3-11.302c-15.046-15.055-15.046-39.552-0.004-54.603c7.294-7.287,16.986-11.3,27.292-11.3 C194.376,239.265,196.711,239.475,199,239.891z M289.838,206.568l-0.12,0.12c-0.002,0.002-48.887,48.896-48.887,48.896 c-2.632-5.77-6.282-11.054-10.855-15.627c-4.574-4.573-9.858-8.224-15.627-10.855l48.894-48.885 c0.002-0.002,0.123-0.123,0.123-0.123L366.072,77.386l26.474,26.474L289.838,206.568z"/> <path d="M154.164,404.094c-4.411,0-8,3.589-8,8s3.589,8,8,8s8-3.589,8-8S158.575,404.094,154.164,404.094z"/> <path d="M124.164,414.094c-4.411,0-8,3.589-8,8s3.589,8,8,8s8-3.589,8-8S128.575,414.094,124.164,414.094z"/> </g> </g>
</svg>