<!DOCTYPE svg PUBLIC "-//W3C//DTD SVG 1.1//EN" "http://www.w3.org/Graphics/SVG/1.1/DTD/svg11.dtd">
<!-- Uploaded to: SVG Repo, www.svgrepo.com, Transformed by: SVG Repo Mixer Tools -->
<svg fill="#09244B" version="1.1" id="Layer_1" xmlns="http://www.w3.org/2000/svg" xmlns:xlink="http://www.w3.org/1999/xlink" viewBox="0 0 512.003 512.003" xml:space="preserve" width="800px" height="800px">
<g id="SVGRepo_bgCarrier" stroke-width="0"/>
<g id="SVGRepo_tracerCarrier" stroke-linecap="round" stroke-linejoin="round"/>
<g id="SVGRepo_iconCarrier"> <g> <g> <path d="M473.82,289.179c-50.905-50.908-133.739-50.908-184.644,0c-50.906,50.906-50.906,133.738,0,184.644 c25.452,25.453,58.888,38.18,92.323,38.18s66.869-12.726,92.323-38.18C524.727,422.917,524.727,340.086,473.82,289.179z M381.498,284.7c7.839,0,15.677,0.949,23.33,2.836c-1.303,5.529-5.134,10.216-10.513,12.532 c-4.463,1.922-9.407,1.992-13.923,0.194c-4.516-1.797-8.06-5.244-9.981-9.708c-0.707-1.64-1.156-3.34-1.361-5.033 C373.181,284.99,377.338,284.7,381.498,284.7z M308.123,427.6c-2.46,2.46-5.269,4.428-8.321,5.883 c-10.994-17.277-15.991-37.291-14.963-57.061c8.51-0.586,17.025,2.464,23.283,8.72C319.828,396.849,319.828,415.894,308.123,427.6 z M449.979,449.982c-34.542,34.542-88.889,37.464-126.809,8.809c3.111-2.164,6.056-4.61,8.794-7.348 c24.852-24.852,24.852-65.29,0-90.142c-10.782-10.782-24.719-17.098-39.245-18.43c4.701-10.841,11.449-21,20.299-29.85 c7.148-7.148,15.148-12.937,23.672-17.379c0.686,2.802,1.594,5.558,2.752,8.247c5.484,12.735,15.599,22.573,28.481,27.7 c6.215,2.474,12.714,3.709,19.208,3.709c6.966-0.001,13.929-1.423,20.519-4.261c13.346-5.747,23.364-16.609,28.19-29.684 c4.982,3.381,9.729,7.256,14.14,11.667C487.739,350.781,487.739,412.222,449.979,449.982z"/> </g> </g> <g> <g> <rect x="175.398" y="109.067" transform="matrix(0.7071 -0.7071 0.7071 0.7071 -79.6404 192.2585)" width="33.717" height="166.393"/> </g> </g> <g> <g> <rect x="84.781" y="94.234" transform="matrix(0.7071 -0.7071 0.7071 0.7071 -126.5797 136.6321)" width="33.717" height="253.754"/> </g> </g> <g> <g> <rect x="204.262" y="-25.241" transform="matrix(0.7071 -0.7071 0.7071 0.7071 -7.1031 186.1244)" width="33.717" height="253.754"/> </g> </g> <g> <g> <path d="M446.386,365.775c-17.389-17.388-45.678-17.385-63.063,0c-17.387,17.387-17.387,45.676,0,63.062 c8.692,8.692,20.111,13.04,31.53,13.04s22.839-4.346,31.534-13.04C463.77,411.451,463.77,383.162,446.386,365.775z M422.543,404.995c-4.241,4.24-11.14,4.239-15.38,0.001c-4.239-4.239-4.239-11.139,0-15.38c2.121-2.12,4.904-3.18,7.69-3.18 c2.785,0,5.57,1.06,7.69,3.181C426.782,393.858,426.782,400.757,422.543,404.995z"/> </g> </g> </g>
</svg>