<!DOCTYPE svg PUBLIC "-//W3C//DTD SVG 1.1//EN" "http://www.w3.org/Graphics/SVG/1.1/DTD/svg11.dtd">
<!-- Uploaded to: SVG Repo, www.svgrepo.com, Transformed by: SVG Repo Mixer Tools -->
<svg fill="#000000" height="800px" width="800px" version="1.1" id="Layer_1" xmlns="http://www.w3.org/2000/svg" xmlns:xlink="http://www.w3.org/1999/xlink" viewBox="0 0 471.004 471.004" xml:space="preserve">
<g id="SVGRepo_bgCarrier" stroke-width="0"/>
<g id="SVGRepo_tracerCarrier" stroke-linecap="round" stroke-linejoin="round"/>
<g id="SVGRepo_iconCarrier"> <g transform="translate(0 -540.36)"> <g> <g> <path d="M160.788,738.87c17.9,0,32.5-15.2,32.6-33.7c0-17.8-15-32.9-32.6-32.9c-18.4,0-33.4,14.8-33.4,32.9 C127.388,723.77,142.388,738.87,160.788,738.87z M160.788,692.27c6.6,0,12.5,6.1,12.6,12.9c0,7.4-5.8,13.7-12.6,13.7 c-7.5,0-13.4-6-13.4-13.7C147.388,698.17,153.488,692.27,160.788,692.27z"/> <path d="M459.788,621.37L459.788,621.37c-17.1-12.7-51.6-10.5-102.7,6.5c-1,0.3-1.8,0.8-2.6,1.3c-19.3-15.2-41.6-26.5-65.9-33.1 c-47.2-12.7-96.5-6.1-138.9,18.5c-64.5,37.4-97.8,108.8-90.8,179.3c-31.9,30.1-66.8,70.9-57.3,99c2.9,8.7,11.3,19.5,34.2,21.8 c0.1,0,0.1,0,0.2,0c2.3,0.2,4.7,0.3,7.1,0.3c17.1,0,39.2-4.2,64.6-12.1c23.2,25.3,52.9,43.5,86.6,52.7 c15.8,4.3,31.8,6.4,47.7,6.4c31.7,0,63-8.4,91.3-24.8c42.5-25.1,72.8-65.4,85.4-113.4c8.5-32.6,8.2-66.3-0.6-98.1 c27.5-26.2,52.8-56.6,52.9-80.2C471.288,635.37,467.388,627.07,459.788,621.37z M228.988,610.27c4.1-0.3,8.1-0.4,12.1-0.4 c14.1,0,28.3,1.9,42.3,5.6c5.9,1.6,11.7,3.5,17.3,5.7c-1,10.5-9.1,19.9-21.1,24.4c-14.5,5.1-29.6,2.8-40.6-6.3 C229.788,631.77,226.088,620.87,228.988,610.27z M37.588,894.77L37.588,894.77c-6.8-0.7-15.2-2.6-17.1-8.3 c-3.2-9.4,6.5-32.6,42.4-68.6c4,17.3,10.6,34.2,19.8,50.4c3.5,6.1,7.3,12,11.3,17.7C70.588,892.77,51.088,895.87,37.588,894.77z M100.288,858.469c-45.6-79.5-18.8-181.1,59.4-226.5v0c15.4-8.9,31.7-15.2,48.6-18.7c-1.4,15.5,5.1,30.9,18.1,41.5 c10.8,8.9,24.1,13.5,38,13.5c7.3,0,14.7-1.3,22-3.9c0.1,0,0.1,0,0.2-0.1c16.9-6.3,28.9-19.2,32.9-34.4 c26.2,14.3,48.1,35.8,63.4,62.5c5,8.9,9.1,18,12.4,27.3c-11.3,10.2-24.6,21.2-40,33c-10.2-13.6-26.3-22.4-44.3-22.4 c-30.9,0-56,25.8-56,57.5c0,8,1.7,15.7,4.7,22.6c-44.6,26.3-89.3,48.3-129.4,63.5c-5.4,2.1-10.7,4-15.9,5.8 C109.188,873.069,104.488,865.969,100.288,858.469z M346.888,787.769c0,19.8-16.5,36.6-36,36.6s-36-16.8-36-36.6 c0-20.7,16.1-37.5,36-37.5C330.688,750.269,346.888,767.069,346.888,787.769z M216.788,939.869L216.788,939.869 c0.8-20.1,15.5-35.9,34.6-36.6c9.8-0.3,19.2,3.2,26.3,9.8c6.1,5.7,10,13.3,11.4,21.7 C265.688,941.969,241.088,943.769,216.788,939.869z M323.188,919.869c-5,2.9-10,5.5-15.2,7.8c-2.6-11.2-8.3-21.3-16.7-29.1 c-11-10.3-25.4-15.7-40.6-15.2c-15,0.5-28.8,7.1-39,18.5c-8.3,9.3-13.4,21.1-14.6,33.7c-26-7.5-49.3-21.1-68.3-39.7 c42.1-15.2,91.4-38.9,141.9-68.7c10.2,10.7,24.5,17.3,40.2,17.3c30.9,0,56-25.4,56-56.6c0-5.9-0.9-11.6-2.5-16.9 c9.8-7.4,22.9-17.8,36.7-29.8C415.288,809.669,385.688,882.869,323.188,919.869z M450.988,644.969c0,0.1,0,0.2,0,0.3 c0,10.7-11.3,31.1-40,59.6c-3.1-7.6-6.7-15-10.7-22.3c-8.1-14.1-17.8-26.9-28.9-38.2c44.4-13.8,68.6-12.8,76.5-6.9 C449.488,638.669,451.088,640.469,450.988,644.969L450.988,644.969z"/> </g> </g> </g> </g>
</svg>