<!DOCTYPE svg PUBLIC "-//W3C//DTD SVG 1.1//EN" "http://www.w3.org/Graphics/SVG/1.1/DTD/svg11.dtd">
<!-- Uploaded to: SVG Repo, www.svgrepo.com, Transformed by: SVG Repo Mixer Tools -->
<svg fill="#09244B" height="800px" width="800px" version="1.1" id="Layer_1" xmlns="http://www.w3.org/2000/svg" xmlns:xlink="http://www.w3.org/1999/xlink" viewBox="0 0 512.001 512.001" xml:space="preserve">
<g id="SVGRepo_bgCarrier" stroke-width="0"/>
<g id="SVGRepo_tracerCarrier" stroke-linecap="round" stroke-linejoin="round"/>
<g id="SVGRepo_iconCarrier"> <g> <g> <path d="M398.686,78.47c-13.621,0-25.499,7.594-31.628,18.768H94.581c-9.545,0-17.283,7.738-17.283,17.283 c0,9.545,7.738,17.283,17.283,17.283h272.477c6.131,11.174,18.009,18.768,31.628,18.768c19.877,0,36.051-16.172,36.051-36.052 C434.736,94.642,418.563,78.47,398.686,78.47z"/> </g> </g> <g> <g> <path d="M417.304,24.171H144.827c-6.131-11.174-18.009-18.768-31.628-18.768c-19.877,0-36.051,16.172-36.051,36.052 c0,19.876,16.172,36.049,36.051,36.049c13.62,0,25.498-7.594,31.628-18.768h272.477c9.545,0,17.283-7.738,17.283-17.283 C434.587,31.909,426.849,24.171,417.304,24.171z"/> </g> </g> <g> <g> <circle cx="103.639" cy="238.837" r="11.625"/> </g> </g> <g> <g> <circle cx="256.003" cy="256.27" r="11.625"/> </g> </g> <g> <g> <circle cx="408.368" cy="273.702" r="11.625"/> </g> </g> <g> <g> <path d="M511.888,390.929c-1.084-9.48-9.655-16.28-19.134-15.206l-20.617,2.356v-79.681l20.617,2.356 c0.667,0.075,1.328,0.113,1.984,0.113c8.667,0,16.142-6.505,17.149-15.322c1.084-9.482-5.725-18.049-15.209-19.133l-24.541-2.804 v-29.961c0-9.545-7.738-17.283-17.283-17.283h-92.971c-9.545,0-17.283,7.738-17.283,17.283v15.367l-24.832-2.838v-35.772 c0-9.545-7.738-17.283-17.283-17.283h-92.971c-9.545,0-17.283,7.738-17.283,17.283v21.177l-24.832-2.838V187.16 c0-9.545-7.738-17.283-17.283-17.283H57.146c-9.545,0-17.283,7.738-17.283,17.283v26.988l-20.617-2.356 c-9.484-1.08-18.05,5.725-19.133,15.209c-1.084,9.482,5.725,18.049,15.209,19.133l24.541,2.804v178.601l-24.54,2.804 c-9.484,1.083-16.293,9.65-15.209,19.133c1.08,9.449,9.602,16.287,19.133,15.209l20.617-2.356v26.988 c0,9.545,7.738,17.283,17.283,17.283h92.972c9.545,0,17.283-7.738,17.283-17.283v-41.582l24.832-2.838v21.176 c0,9.545,7.738,17.283,17.283,17.283h92.971c9.545,0,17.283-7.738,17.283-17.283v-35.772l24.832-2.838v15.367 c0,9.545,7.738,17.283,17.283,17.283h92.971c9.545,0,17.283-7.738,17.283-17.283v-29.961l24.541-2.804 C506.162,408.978,512.972,400.412,511.888,390.929z M132.835,472.035H74.429c0-13.812,0-248.409,0-267.591h58.406 C132.835,216.213,132.835,460.366,132.835,472.035z M192.233,410.109l-24.832,2.837v-149.41l24.832,2.838V410.109z M285.203,261.398c0,0.001,0,0.002,0,0.003v153.677c0,0.001,0,0.002,0,0.003v33.712h-58.405v-0.001c0-9.238,0-211.876,0-221.106 h58.405V261.398z M344.6,392.676l-24.832,2.837V280.967l24.832,2.838V392.676z M437.571,425.55h-58.405V250.929h58.405 C437.571,272.984,437.571,403.599,437.571,425.55z"/> </g> </g> <g> <g> <circle cx="103.639" cy="437.634" r="11.625"/> </g> </g> <g> <g> <circle cx="256.003" cy="420.202" r="11.625"/> </g> </g> <g> <g> <circle cx="408.368" cy="402.781" r="11.625"/> </g> </g> </g>
</svg>