<!DOCTYPE svg PUBLIC "-//W3C//DTD SVG 1.1//EN" "http://www.w3.org/Graphics/SVG/1.1/DTD/svg11.dtd">
<!-- Uploaded to: SVG Repo, www.svgrepo.com, Transformed by: SVG Repo Mixer Tools -->
<svg fill="#ffe2d6" height="800px" width="800px" version="1.1" id="Layer_1" xmlns="http://www.w3.org/2000/svg" xmlns:xlink="http://www.w3.org/1999/xlink" viewBox="0 0 512 512" xml:space="preserve" stroke="#ffe2d6">
<g id="SVGRepo_bgCarrier" stroke-width="0"/>
<g id="SVGRepo_tracerCarrier" stroke-linecap="round" stroke-linejoin="round"/>
<g id="SVGRepo_iconCarrier"> <g> <g> <path d="M96.255,216.256H52.441c-6.049,0-12.323,4.503-12.323,10.558v273.837c0,6.054,6.274,11.349,12.323,11.349h43.814 c6.049,0,9.584-5.295,9.584-11.349V226.814C105.839,220.76,102.304,216.256,96.255,216.256z M83.932,490.093H62.025v-251.93 h21.907V490.093z"/> </g> </g> <g> <g> <path d="M194.836,238.163h-43.814c-6.049,0-12.323,4.503-12.323,10.558v230.023c0,6.054,6.274,11.349,12.323,11.349h43.814 c6.049,0,9.584-5.295,9.584-11.349V248.721C204.42,242.666,200.885,238.163,194.836,238.163z M182.513,468.186h-21.907V260.07 h21.907V468.186z"/> </g> </g> <g> <g> <path d="M293.417,260.07h-43.814c-6.049,0-12.323,4.503-12.323,10.558v186.209c0,6.054,6.274,11.349,12.323,11.349h43.814 c6.049,0,9.584-5.295,9.584-11.349V270.628C303.001,264.573,299.466,260.07,293.417,260.07z M281.095,446.279h-21.907V281.977 h21.907V446.279z"/> </g> </g> <g> <g> <path d="M391.998,281.977h-43.814c-6.049,0-12.323,4.503-12.323,10.558V434.93c0,6.054,6.274,11.349,12.323,11.349h43.814 c6.049,0,9.584-5.295,9.584-11.349V292.535C401.583,286.48,398.047,281.977,391.998,281.977z M379.676,424.372h-21.907V303.884 h21.907V424.372z"/> </g> </g> <g> <g> <path d="M490.58,303.884h-43.814c-6.049,0-12.323,4.503-12.323,10.558v98.581c0,6.054,6.274,11.349,12.323,11.349h43.814 c6.049,0,9.584-5.295,9.584-11.349v-98.581C500.164,308.387,496.629,303.884,490.58,303.884z M478.257,402.465H456.35v-76.674 h21.907V402.465z"/> </g> </g> <g> <g> <path d="M465.464,114.07l-15.489-15.489l-79.579,79.579c-6.522-3.859-14.1-6.113-22.212-6.113 c-24.159,0-43.814,19.65-43.814,43.814c0,24.164,19.655,43.814,43.814,43.814s43.814-19.65,43.814-43.814 c0-8.114-2.254-15.689-6.112-22.212L465.464,114.07z M348.185,237.768c-12.082,0-21.907-9.83-21.907-21.907 c0-12.077,9.825-21.907,21.907-21.907c12.082,0,21.907,9.83,21.907,21.907C370.091,227.937,360.266,237.768,348.185,237.768z"/> </g> </g> <g> <g> <path d="M161.976,95.372c-11.145,0-21.511,3.364-30.172,9.106L27.325,0L11.836,15.489l104.479,104.478 c-5.742,8.662-9.107,19.027-9.107,30.173c0,30.197,24.571,54.767,54.767,54.767c30.197,0,54.767-24.571,54.767-54.767 C216.743,119.943,192.172,95.372,161.976,95.372z M161.976,183c-18.12,0-32.86-14.74-32.86-32.86c0-18.12,14.74-32.86,32.86-32.86 c18.12,0,32.86,14.74,32.86,32.86C194.836,168.26,180.096,183,161.976,183z"/> </g> </g> </g>
</svg>