<!DOCTYPE svg PUBLIC "-//W3C//DTD SVG 1.1//EN" "http://www.w3.org/Graphics/SVG/1.1/DTD/svg11.dtd">
<!-- Uploaded to: SVG Repo, www.svgrepo.com, Transformed by: SVG Repo Mixer Tools -->
<svg fill="#000000" height="800px" width="800px" version="1.1" id="Layer_1" xmlns="http://www.w3.org/2000/svg" xmlns:xlink="http://www.w3.org/1999/xlink" viewBox="0 0 512.001 512.001" xml:space="preserve">
<g id="SVGRepo_bgCarrier" stroke-width="0"/>
<g id="SVGRepo_tracerCarrier" stroke-linecap="round" stroke-linejoin="round"/>
<g id="SVGRepo_iconCarrier"> <g> <g> <path d="M330.217,97.238H94.581c-9.545,0-17.283,7.738-17.283,17.283c0,9.545,7.738,17.283,17.283,17.283h235.636 c-1.398-5.534-2.148-11.322-2.148-17.284C328.069,108.558,328.819,102.771,330.217,97.238z"/> </g> </g> <g> <g> <path d="M398.686,78.47c-19.879,0-36.052,16.172-36.052,36.051c0,19.879,16.172,36.052,36.052,36.052 c19.877,0,36.051-16.172,36.051-36.052C434.736,94.642,418.563,78.47,398.686,78.47z"/> </g> </g> <g> <g> <path d="M417.304,24.17H181.668c1.398,5.534,2.148,11.322,2.148,17.284c-0.001,5.961-0.75,11.749-2.148,17.282h235.636 c9.545,0,17.283-7.738,17.283-17.283C434.587,31.908,426.849,24.17,417.304,24.17z"/> </g> </g> <g> <g> <path d="M113.199,5.403c-19.877,0-36.051,16.172-36.051,36.052c0,19.877,16.172,36.051,36.051,36.051s36.052-16.172,36.052-36.051 C149.25,21.576,133.078,5.403,113.199,5.403z"/> </g> </g> <g> <g> <path d="M511.888,390.93c-1.084-9.48-9.655-16.28-19.134-15.206l-20.617,2.356v-79.681l20.617,2.356 c0.667,0.075,1.328,0.113,1.984,0.113c8.667,0,16.142-6.505,17.149-15.322c1.084-9.482-5.725-18.049-15.209-19.133l-24.541-2.804 v-29.961c0-9.545-7.738-17.283-17.283-17.283h-92.971c-9.545,0-17.283,7.738-17.283,17.283v15.367l-24.832-2.838v-35.772 c0-9.545-7.738-17.283-17.283-17.283h-92.971c-9.545,0-17.283,7.738-17.283,17.283v21.177l-24.832-2.838V187.16 c0-9.545-7.738-17.283-17.283-17.283H57.146c-9.545,0-17.283,7.738-17.283,17.283v26.988l-20.617-2.356 c-9.484-1.08-18.05,5.725-19.133,15.209c-1.084,9.482,5.725,18.049,15.209,19.133l24.541,2.804v178.601l-24.54,2.804 c-9.484,1.083-16.293,9.65-15.209,19.133c1.007,8.816,8.482,15.322,17.149,15.322c0.654,0,1.317-0.037,1.984-0.113l20.617-2.356 v26.988c0,9.545,7.738,17.283,17.283,17.283h92.972c9.545,0,17.283-7.738,17.283-17.283v-41.582l24.832-2.838v21.176 c0,9.545,7.738,17.283,17.283,17.283h92.971c9.545,0,17.283-7.738,17.283-17.283V430.3l24.832-2.838v15.367 c0,9.545,7.738,17.283,17.283,17.283h92.971c9.545,0,17.283-7.738,17.283-17.283v-29.961l24.541-2.804 C506.162,408.979,512.972,400.412,511.888,390.93z M103.634,449.263c-6.419,0-11.621-5.203-11.621-11.621 c0-6.419,5.203-11.621,11.621-11.621c6.419,0,11.621,5.203,11.621,11.621S110.052,449.263,103.634,449.263z M103.634,250.462 c-6.419,0-11.621-5.203-11.621-11.621c0-6.419,5.203-11.621,11.621-11.621c6.419,0,11.621,5.203,11.621,11.621 S110.052,250.462,103.634,250.462z M192.233,410.109l-24.832,2.837v-149.41l24.832,2.838V410.109z M256.002,431.83 c-6.419,0-11.621-5.203-11.621-11.621c0-6.419,5.203-11.621,11.621-11.621c6.419,0,11.621,5.203,11.621,11.621 C267.624,426.627,262.421,431.83,256.002,431.83z M256.002,267.893c-6.419,0-11.621-5.203-11.621-11.621 c0-6.419,5.203-11.621,11.621-11.621c6.419,0,11.621,5.203,11.621,11.621C267.624,262.69,262.421,267.893,256.002,267.893z M344.6,392.677l-24.832,2.837V280.967l24.832,2.838V392.677z M408.371,414.398c-6.419,0-11.621-5.203-11.621-11.621 c0-6.419,5.203-11.621,11.621-11.621c6.419,0,11.621,5.203,11.621,11.621S414.79,414.398,408.371,414.398z M408.371,285.326 c-6.419,0-11.621-5.203-11.621-11.621c0-6.418,5.203-11.621,11.621-11.621c6.419,0,11.621,5.203,11.621,11.621 C419.992,280.123,414.79,285.326,408.371,285.326z"/> </g> </g> </g>
</svg>