<!DOCTYPE svg PUBLIC "-//W3C//DTD SVG 1.1//EN" "http://www.w3.org/Graphics/SVG/1.1/DTD/svg11.dtd">
<!-- Uploaded to: SVG Repo, www.svgrepo.com, Transformed by: SVG Repo Mixer Tools -->
<svg fill="#09244B" height="800px" width="800px" version="1.1" id="Layer_1" xmlns="http://www.w3.org/2000/svg" xmlns:xlink="http://www.w3.org/1999/xlink" viewBox="0 0 469.999 469.999" xml:space="preserve" stroke="#09244B">
<g id="SVGRepo_bgCarrier" stroke-width="0"/>
<g id="SVGRepo_tracerCarrier" stroke-linecap="round" stroke-linejoin="round"/>
<g id="SVGRepo_iconCarrier"> <g> <g> <g> <circle cx="150" cy="299.969" r="7.5"/> <circle cx="150" cy="170.029" r="7.5"/> <circle cx="235" cy="307.441" r="7.5"/> <circle cx="235" cy="162.557" r="7.5"/> <circle cx="320" cy="314.914" r="7.5"/> <circle cx="320" cy="155.085" r="7.5"/> <circle cx="405" cy="322.386" r="7.5"/> <circle cx="405" cy="147.612" r="7.5"/> <circle cx="65" cy="292.497" r="7.5"/> <circle cx="65" cy="177.502" r="7.5"/> <path d="M467.566,121.968c-1.551-1.421-3.627-2.125-5.723-1.94L440,121.948V87.499c0-4.142-3.358-7.5-7.5-7.5h-55 c-4.142,0-7.5,3.358-7.5,7.5v40.603l-15,1.319V97.499c0-4.142-3.358-7.5-7.5-7.5h-55c-4.142,0-7.5,3.358-7.5,7.5v38.076 l-15,1.319v-29.395c0-4.142-3.358-7.5-7.5-7.5h-55c-4.142,0-7.5,3.358-7.5,7.5v35.548l-15,1.318v-26.866 c0-4.142-3.358-7.5-7.5-7.5h-55c-4.142,0-7.5,3.358-7.5,7.5v33.021l-15,1.318v-24.339c0-4.142-3.358-7.5-7.5-7.5h-55 c-4.142,0-7.5,3.358-7.5,7.5v30.493l-23.157,2.036C2.971,160.369,0,163.611,0,167.499v135c0,3.888,2.971,7.131,6.843,7.471 L30,312.006V342.5c0,4.142,3.358,7.5,7.5,7.5h55c4.142,0,7.5-3.358,7.5-7.5v-24.339l15,1.318V352.5c0,4.142,3.358,7.5,7.5,7.5h55 c4.142,0,7.5-3.358,7.5-7.5v-26.866l15,1.318V362.5c0,4.142,3.358,7.5,7.5,7.5h55c4.142,0,7.5-3.358,7.5-7.5v-29.395l15,1.319 V372.5c0,4.142,3.358,7.5,7.5,7.5h55c4.142,0,7.5-3.358,7.5-7.5v-31.922l15,1.319V382.5c0,4.142,3.358,7.5,7.5,7.5h55 c4.142,0,7.5-3.358,7.5-7.5V348.05l21.843,1.92c0.219,0.019,0.438,0.029,0.657,0.029c1.867,0,3.677-0.698,5.065-1.969 c1.551-1.421,2.434-3.427,2.434-5.531v-215C470,125.395,469.117,123.39,467.566,121.968z M30,296.948l-15-1.319v-121.26l15-1.319 V296.948z M115,304.422l-15-1.319v-15.058l15,1.319V304.422z M115,274.305l-15-1.319v-22.986c0-4.142-3.358-7.5-7.5-7.5 c-4.142,0-7.5,3.358-7.5,7.5v85H45v-200h40v85c0,4.142,3.358,7.5,7.5,7.5c4.142,0,7.5-3.358,7.5-7.5v-22.987l15-1.319V274.305z M115,180.635l-15,1.319v-15.058l15-1.319V180.635z M170,345h-40v-220h40V345z M200,311.894l-15-1.319v-15.058l15,1.319V311.894z M200,281.779l-15-1.319v-90.919l15-1.319V281.779z M200,173.162l-15,1.319v-15.058l15-1.319V173.162z M255,355h-40v-240h40V355z M270,151.952l15-1.318v15.057l-15,1.319V151.952z M285,319.365l-15-1.318V302.99l15,1.319V319.365z M340,365h-40v-115 c0-4.142-3.358-7.5-7.5-7.5c-4.142,0-7.5,3.358-7.5,7.5v39.251l-15-1.319V182.067l15-1.319v39.251c0,4.142,3.358,7.5,7.5,7.5 c4.142,0,7.5-3.358,7.5-7.5v-115h40V365z M370,326.839l-15-1.318v-15.058l15,1.319V326.839z M370,296.722l-15-1.319V174.594 l15-1.319V296.722z M370,158.218l-15,1.319v-15.058l15-1.318V158.218z M425,375h-40v-280h40V375z M455,334.312l-15-1.319V137.007 l15-1.319V334.312z"/> <path d="M323.333,405c-5.537,0-10.372,3.024-12.97,7.5H139.167c-4.142,0-7.5,3.358-7.5,7.5c0,4.142,3.358,7.5,7.5,7.5h171.196 c2.599,4.476,7.433,7.5,12.971,7.5c4.007,0,7.773-1.561,10.606-4.394c2.833-2.833,4.394-6.601,4.393-10.606 C338.333,411.729,331.604,405,323.333,405z"/> <path d="M146.667,64.999c5.538,0,10.372-3.024,12.97-7.5h171.196c4.142,0,7.5-3.358,7.5-7.5c0-4.142-3.358-7.5-7.5-7.5H159.637 c-2.598-4.476-7.433-7.5-12.97-7.5c-8.271,0-15,6.729-15,15S138.396,64.999,146.667,64.999z"/> </g> </g> </g> </g>
</svg>